HIERARCHY
ROOT Hips
{
    OFFSET 0.000000 0.000000 0.000000
    CHANNELS 6 Xposition Yposition Zposition Zrotation Xrotation Yrotation
    JOINT Spine
    {
        OFFSET -0.000008 7.848626 0.000026
        CHANNELS 3 Zrotation Xrotation Yrotation
        JOINT Spine1
        {
            OFFSET 0.000013 20.903070 -0.000033
            CHANNELS 3 Zrotation Xrotation Yrotation
            JOINT Neck
            {
                OFFSET 0.000003 22.292706 -0.000011
                CHANNELS 3 Zrotation Xrotation Yrotation
                JOINT Head
                {
                    OFFSET 0.000001 14.279130 1.902220
                    CHANNELS 3 Zrotation Xrotation Yrotation
                    End Site
                    {
                        OFFSET 0.000000 19.022141 0.000000
                    }
                }
            }
            JOINT LeftShoulder
            {
                OFFSET 3.797834 16.121201 -0.677306
                CHANNELS 3 Zrotation Xrotation Yrotation
                JOINT LeftArm
                {
                    OFFSET 11.576589 -0.000004 -0.000014
                    CHANNELS 3 Zrotation Xrotation Yrotation
                    JOINT LeftForeArm
                    {
                        OFFSET 29.906410 0.000012 0.000004
                        CHANNELS 3 Zrotation Xrotation Yrotation
                        JOINT LeftHand
                        {
                            OFFSET 24.318316 0.000004 0.000004
                            CHANNELS 3 Zrotation Xrotation Yrotation
                            JOINT LeftHandThumb1
                            {
                                OFFSET 1.987815 -2.258876 3.162452
                                CHANNELS 3 Zrotation Xrotation Yrotation
                                JOINT LeftHandThumb2
                                {
                                    OFFSET 3.002299 0.000005 0.000005
                                    CHANNELS 3 Zrotation Xrotation Yrotation
                                    JOINT LeftHandThumb3
                                    {
                                        OFFSET 2.566085 0.000018 0.000012
                                        CHANNELS 3 Zrotation Xrotation Yrotation
                                        End Site
                                        {
                                            OFFSET 2.440626 0.000000 0.000000
                                        }
                                    }
                                }
                            }
                            JOINT LeftHandIndex1
                            {
                                OFFSET 8.131962 0.000001 3.162428
                                CHANNELS 3 Zrotation Xrotation Yrotation
                                JOINT LeftHandIndex2
                                {
                                    OFFSET 4.517756 -0.000002 -0.000008
                                    CHANNELS 3 Zrotation Xrotation Yrotation
                                    JOINT LeftHandIndex3
                                    {
                                        OFFSET 2.258878 0.000006 0.000019
                                        CHANNELS 3 Zrotation Xrotation Yrotation
                                        End Site
                                        {
                                            OFFSET 2.148437 0.000000 0.000000
                                        }
                                    }
                                }
                            }
                            JOINT LeftHandMiddle1
                            {
                                OFFSET 8.131961 0.000003 1.048141
                                CHANNELS 3 Zrotation Xrotation Yrotation
                                JOINT LeftHandMiddle2
                                {
                                    OFFSET 4.969536 -0.000001 -0.000014
                                    CHANNELS 3 Zrotation Xrotation Yrotation
                                    JOINT LeftHandMiddle3
                                    {
                                        OFFSET 2.710657 0.000001 0.000014
                                        CHANNELS 3 Zrotation Xrotation Yrotation
                                        End Site
                                        {
                                            OFFSET 2.578118 0.000000 0.000000
                                        }
                                    }
                                }
                            }
                            JOINT LeftHandRing1
                            {
                                OFFSET 7.680184 0.000003 -1.048099
                                CHANNELS 3 Zrotation Xrotation Yrotation
                                JOINT LeftHandRing2
                                {
                                    OFFSET 4.517756 -0.000001 -0.000008
                                    CHANNELS 3 Zrotation Xrotation Yrotation
                                    JOINT LeftHandRing3
                                    {
                                        OFFSET 2.258878 0.000002 0.000020
                                        CHANNELS 3 Zrotation Xrotation Yrotation
                                        End Site
                                        {
                                            OFFSET 2.148437 0.000000 0.000000
                                        }
                                    }
                                }
                            }
                            JOINT LeftHandPinky1
                            {
                                OFFSET 7.228410 0.000000 -3.162428
                                CHANNELS 3 Zrotation Xrotation Yrotation
                                JOINT LeftHandPinky2
                                {
                                    OFFSET 3.614204 0.000001 0.000003
                                    CHANNELS 3 Zrotation Xrotation Yrotation
                                    JOINT LeftHandPinky3
                                    {
                                        OFFSET 1.807105 0.000001 -0.000022
                                        CHANNELS 3 Zrotation Xrotation Yrotation
                                        End Site
                                        {
                                            OFFSET 1.718745 0.000000 0.000000
                                        }
                                    }
                                }
                            }
                        }
                    }
                }
            }
            JOINT RightShoulder
            {
                OFFSET -3.797835 16.121204 -0.677282
                CHANNELS 3 Zrotation Xrotation Yrotation
                JOINT RightArm
                {
                    OFFSET -11.576581 -0.000004 -0.000002
                    CHANNELS 3 Zrotation Xrotation Yrotation
                    JOINT RightForeArm
                    {
                        OFFSET -29.906410 0.000012 0.000015
                        CHANNELS 3 Zrotation Xrotation Yrotation
                        JOINT RightHand
                        {
                            OFFSET -24.318323 0.000011 0.000001
                            CHANNELS 3 Zrotation Xrotation Yrotation
                            JOINT RightHandThumb1
                            {
                                OFFSET -1.987803 -2.258880 3.162433
                                CHANNELS 3 Zrotation Xrotation Yrotation
                                JOINT RightHandThumb2
                                {
                                    OFFSET -3.002280 0.000010 0.000002
                                    CHANNELS 3 Zrotation Xrotation Yrotation
                                    JOINT RightHandThumb3
                                    {
                                        OFFSET -2.566098 -0.000006 0.000001
                                        CHANNELS 3 Zrotation Xrotation Yrotation
                                        End Site
                                        {
                                            OFFSET -2.440626 0.000000 0.000000
                                        }
                                    }
                                }
                            }
                            JOINT RightHandIndex1
                            {
                                OFFSET -8.131983 -0.000002 3.162433
                                CHANNELS 3 Zrotation Xrotation Yrotation
                                JOINT RightHandIndex2
                                {
                                    OFFSET -4.517781 -0.000002 -0.000004
                                    CHANNELS 3 Zrotation Xrotation Yrotation
                                    JOINT RightHandIndex3
                                    {
                                        OFFSET -2.258867 -0.000001 0.000000
                                        CHANNELS 3 Zrotation Xrotation Yrotation
                                        End Site
                                        {
                                            OFFSET -2.148437 0.000000 0.000000
                                        }
                                    }
                                }
                            }
                            JOINT RightHandMiddle1
                            {
                                OFFSET -8.131975 -0.000004 1.048119
                                CHANNELS 3 Zrotation Xrotation Yrotation
                                JOINT RightHandMiddle2
                                {
                                    OFFSET -4.969537 0.000003 0.000004
                                    CHANNELS 3 Zrotation Xrotation Yrotation
                                    JOINT RightHandMiddle3
                                    {
                                        OFFSET -2.710670 0.000003 0.000004
                                        CHANNELS 3 Zrotation Xrotation Yrotation
                                        End Site
                                        {
                                            OFFSET -2.578118 0.000000 0.000000
                                        }
                                    }
                                }
                            }
                            JOINT RightHandRing1
                            {
                                OFFSET -7.680190 -0.000004 -1.048120
                                CHANNELS 3 Zrotation Xrotation Yrotation
                                JOINT RightHandRing2
                                {
                                    OFFSET -4.517781 -0.000002 -0.000003
                                    CHANNELS 3 Zrotation Xrotation Yrotation
                                    JOINT RightHandRing3
                                    {
                                        OFFSET -2.258867 -0.000000 0.000000
                                        CHANNELS 3 Zrotation Xrotation Yrotation
                                        End Site
                                        {
                                            OFFSET -2.148437 0.000000 0.000000
                                        }
                                    }
                                }
                            }
                            JOINT RightHandPinky1
                            {
                                OFFSET -7.228427 -0.000003 -3.162433
                                CHANNELS 3 Zrotation Xrotation Yrotation
                                JOINT RightHandPinky2
                                {
                                    OFFSET -3.614225 -0.000003 -0.000004
                                    CHANNELS 3 Zrotation Xrotation Yrotation
                                    JOINT RightHandPinky3
                                    {
                                        OFFSET -1.807113 0.000001 0.000003
                                        CHANNELS 3 Zrotation Xrotation Yrotation
                                        End Site
                                        {
                                            OFFSET -1.718745 0.000000 0.000000
                                        }
                                    }
                                }
                            }
                        }
                    }
                }
            }
        }
    }
    JOINT LeftUpLeg
    {
        OFFSET 9.511071 0.000001 -0.000012
        CHANNELS 3 Zrotation Xrotation Yrotation
        JOINT LeftLeg
        {
            OFFSET 0.000005 -43.875633 -0.000009
            CHANNELS 3 Zrotation Xrotation Yrotation
            JOINT LeftFoot
            {
                OFFSET 0.000003 -35.354156 -0.000004
                CHANNELS 3 Zrotation Xrotation Yrotation
                JOINT LeftToeBase
                {
                    OFFSET -0.000001 -6.182192 14.266607
                    CHANNELS 3 Zrotation Xrotation Yrotation
                    End Site
                    {
                        OFFSET 0.000000 0.000000 3.804428
                    }
                }
            }
        }
    }
    JOINT RightUpLeg
    {
        OFFSET -9.511071 -0.000001 0.000012
        CHANNELS 3 Zrotation Xrotation Yrotation
        JOINT RightLeg
        {
            OFFSET 0.000000 -43.875633 -0.000009
            CHANNELS 3 Zrotation Xrotation Yrotation
            JOINT RightFoot
            {
                OFFSET 0.000001 -35.354160 -0.000016
                CHANNELS 3 Zrotation Xrotation Yrotation
                JOINT RightToeBase
                {
                    OFFSET -0.000000 -6.182191 14.266625
                    CHANNELS 3 Zrotation Xrotation Yrotation
                    End Site
                    {
                        OFFSET 0.000000 0.000000 3.804428
                    }
                }
            }
        }
    }
}
MOTION
Frames:    4
Frame Time:    0.002778
42.098991    87.283234    595.939453    5.740962    -12.535382    -151.115631    -0.077724    9.266291    2.899478    -0.388620    9.266095    2.949547    4.954710    1.014760    -19.544573    4.954710    1.014756    -19.544575    0.111102    -3.291332    -5.363718    -61.656410    0.376500    -27.621204    -49.843716    15.562033    -81.519272    -2.027332    -0.812331    8.691376    47.448204    38.866417    -34.355030    -34.999996    -0.000001    -0.000004    -0.000000    0.000000    -0.000000    -0.000000    9.999999    0.000003    -0.000000    0.000000    -0.000000    -0.000000    0.000000    -0.000000    -0.000000    0.000000    -0.000000    -0.000000    0.000000    -0.000000    -0.000000    0.000000    -0.000000    -0.000000    0.000000    -0.000000    -0.000000    0.000000    -0.000000    -0.000000    0.000000    -0.000000    0.000001    -9.999995    -0.000003    -0.000000    0.000000    -0.000000    -0.000000    0.000000    -0.000000    -4.822049    -2.849738    6.729112    52.060410    -9.835245    29.952408    3.829790    20.242109    74.514862    -69.705315    11.958632    -4.363679    -47.448204    38.866428    34.355030    35.000004    0.000001    -0.000006    -0.000000    0.000000    -0.000000    -0.000001    9.999995    -0.000000    -0.000000    0.000000    -0.000000    -0.000000    0.000000    -0.000000    -0.000000    0.000000    -0.000000    -0.000000    0.000000    -0.000000    -0.000000    0.000000    -0.000000    -0.000000    0.000000    -0.000000    -0.000000    0.000000    -0.000000    -0.000000    0.000000    -0.000000    0.000003    -9.999997    0.000004    -0.000000    0.000000    -0.000000    -0.000000    0.000000    -0.000000    18.891804    -39.509991    1.285622    0.000001    33.698639    -0.000003    -14.250735    -8.247472    -3.609649    0.000000    -1.125435    0.000001    -18.805433    -39.796665    -9.903389    0.000003    55.099289    -0.000003    19.783606    -22.452768    -14.536432    -0.000000    -5.268133    -0.000000    
42.143017    87.270340    595.976379    5.774202    -12.627677    -151.008194    -0.075182    9.271923    2.980392    -0.375902    9.271737    3.028838    4.970828    1.039136    -19.654287    4.970827    1.039136    -19.654287    0.083572    -3.282004    -5.397267    -61.689415    0.372690    -27.641403    -49.999016    15.677337    -81.582573    -2.311275    -0.857605    8.688303    47.448174    38.866455    -34.355022    -34.999962    0.000003    0.000024    -0.000000    0.000000    -0.000000    -0.000001    10.000001    0.000007    -0.000000    0.000000    -0.000000    -0.000000    0.000000    -0.000000    -0.000000    0.000000    -0.000000    -0.000000    0.000000    -0.000000    -0.000000    0.000000    -0.000000    -0.000000    0.000000    -0.000000    -0.000000    0.000000    -0.000000    -0.000000    0.000000    -0.000000    0.000000    -10.000000    0.000003    -0.000000    0.000000    -0.000000    -0.000000    0.000000    -0.000000    -4.874609    -2.899701    6.719579    51.856590    -10.027158    30.414476    3.773504    20.079941    73.879120    -69.632294    11.837044    -4.334243    -47.448215    38.866428    34.355030    34.999992    0.000001    -0.000002    -0.000000    0.000000    -0.000000    -0.000001    10.000001    -0.000005    -0.000000    0.000000    -0.000000    -0.000000    0.000000    -0.000000    -0.000000    0.000000    -0.000000    -0.000000    0.000000    -0.000000    -0.000000    0.000000    -0.000000    -0.000000    0.000000    -0.000000    -0.000000    0.000000    -0.000000    -0.000000    0.000000    -0.000000    0.000002    -10.000002    0.000007    -0.000000    0.000000    -0.000000    -0.000000    0.000000    -0.000000    18.881254    -39.630398    1.303798    -0.000001    33.584957    0.000002    -14.322021    -8.126989    -3.664290    -0.000000    -1.123805    -0.000001    -18.878687    -39.940372    -9.964767    0.000001    55.159100    -0.000002    19.744108    -22.371355    -14.624125    -0.000000    -5.257347    -0.000000    
42.182846    87.259186    596.014404    5.805902    -12.721263    -150.895370    -0.072075    9.276360    3.057440    -0.360379    9.276184    3.103915    4.985249    1.058598    -19.762712    4.985250    1.058589    -19.762711    0.051452    -3.274148    -5.436794    -61.722015    0.371234    -27.660526    -50.157345    15.789118    -81.640175    -2.589645    -0.902084    8.686162    47.448166    38.866459    -34.355026    -34.999954    0.000002    0.000015    -0.000000    0.000000    -0.000000    -0.000003    9.999997    0.000000    -0.000000    0.000000    -0.000000    -0.000000    0.000000    -0.000000    -0.000000    0.000000    -0.000000    -0.000000    0.000000    -0.000000    -0.000000    0.000000    -0.000000    -0.000000    0.000000    -0.000000    -0.000000    0.000000    -0.000000    -0.000000    0.000000    -0.000000    -0.000006    -9.999995    0.000006    -0.000000    0.000000    -0.000000    -0.000000    0.000000    -0.000000    -4.926238    -2.948740    6.701236    51.651497    -10.218691    30.887369    3.730335    19.907118    73.212715    -69.542015    11.725210    -4.312043    -47.448215    38.866447    34.355038    34.999996    -0.000001    -0.000001    -0.000000    0.000000    -0.000000    0.000004    10.000004    0.000004    -0.000000    0.000000    -0.000000    -0.000000    0.000000    -0.000000    -0.000000    0.000000    -0.000000    -0.000000    0.000000    -0.000000    -0.000000    0.000000    -0.000000    -0.000000    0.000000    -0.000000    -0.000000    0.000000    -0.000000    -0.000000    0.000000    -0.000000    0.000003    -9.999999    0.000001    -0.000000    0.000000    -0.000000    -0.000000    0.000000    -0.000000    18.858204    -39.752750    1.309944    0.000002    33.468857    -0.000001    -14.388777    -8.001298    -3.715405    0.000000    -1.122539    0.000001    -18.961359    -40.080746    -10.035566    0.000000    55.216743    -0.000002    19.699421    -22.286787    -14.720767    -0.000000    -5.239253    0.000000    
42.228374    87.247673    596.051575    5.838671    -12.814796    -150.787048    -0.070572    9.281341    3.138014    -0.352854    9.281172    3.183540    4.999867    1.075040    -19.864649    4.999866    1.075033    -19.864649    0.025379    -3.268041    -5.481380    -61.746632    0.369538    -27.684202    -50.309685    15.903359    -81.702316    -2.871641    -0.946331    8.669565    47.448212    38.866440    -34.355026    -34.999989    0.000000    -0.000012    -0.000000    0.000000    -0.000000    0.000001    10.000003    -0.000007    -0.000000    0.000000    -0.000000    -0.000000    0.000000    -0.000000    -0.000000    0.000000    -0.000000    -0.000000    0.000000    -0.000000    -0.000000    0.000000    -0.000000    -0.000000    0.000000    -0.000000    -0.000000    0.000000    -0.000000    -0.000000    0.000000    -0.000000    0.000007    -10.000001    -0.000003    -0.000000    0.000000    -0.000000    -0.000000    0.000000    -0.000000    -4.973886    -2.996863    6.685459    51.449234    -10.407305    31.374023    3.653977    19.733355    72.528976    -69.432037    11.611660    -4.292938    -47.448215    38.866444    34.355030    34.999996    -0.000004    0.000003    -0.000000    0.000000    -0.000000    0.000000    10.000003    -0.000001    -0.000000    0.000000    -0.000000    -0.000000    0.000000    -0.000000    -0.000000    0.000000    -0.000000    -0.000000    0.000000    -0.000000    -0.000000    0.000000    -0.000000    -0.000000    0.000000    -0.000000    -0.000000    0.000000    -0.000000    -0.000000    0.000000    -0.000000    -0.000002    -9.999998    -0.000001    -0.000000    0.000000    -0.000000    -0.000000    0.000000    -0.000000    18.841951    -39.874687    1.320978    -0.000001    33.351204    -0.000001    -14.443561    -7.870099    -3.760853    -0.000001    -1.117305    0.000000    -19.037064    -40.225910    -10.099896    0.000004    55.277287    -0.000004    19.658546    -22.206400    -14.812496    0.000000    -5.215948    0.000000    
